<svg width="85" height="26" viewBox="0 0 85 26" fill="none" xmlns="http://www.w3.org/2000/svg">
<path d="M8.16193 5.81818V7.66477H0.8125V5.81818H8.16193ZM2.95455 2.42045H5.13352V15.9375C5.13352 16.553 5.22277 17.0147 5.40128 17.3224C5.58594 17.6241 5.81984 17.8272 6.10298 17.9318C6.39228 18.0303 6.69697 18.0795 7.01705 18.0795C7.2571 18.0795 7.45407 18.0672 7.60796 18.0426C7.76184 18.0118 7.88494 17.9872 7.97727 17.9688L8.42046 19.9261C8.27273 19.9815 8.06652 20.0369 7.80185 20.0923C7.53717 20.1539 7.20171 20.1847 6.79546 20.1847C6.17992 20.1847 5.5767 20.0523 4.9858 19.7876C4.40104 19.523 3.91477 19.1198 3.52699 18.5781C3.14536 18.0365 2.95455 17.3532 2.95455 16.5284V2.42045ZM11.4396 20V5.81818H13.5447V7.96023H13.6925C13.951 7.25852 14.4188 6.68916 15.0959 6.25213C15.773 5.8151 16.5362 5.59659 17.3857 5.59659C17.5457 5.59659 17.7457 5.59967 17.9858 5.60582C18.2259 5.61198 18.4074 5.62121 18.5305 5.63352V7.84943C18.4567 7.83097 18.2874 7.80327 18.0227 7.76633C17.7642 7.72325 17.4903 7.7017 17.201 7.7017C16.5116 7.7017 15.8961 7.84635 15.3544 8.13565C14.8189 8.4188 14.3942 8.81274 14.0803 9.31747C13.7725 9.81605 13.6186 10.3854 13.6186 11.0256V20H11.4396ZM25.7207 20.2539C24.8997 20.2539 24.1592 20.1312 23.499 19.8857C22.8389 19.6403 22.276 19.2679 21.8105 18.7686C21.3451 18.2607 20.9896 17.6217 20.7441 16.8516C20.4987 16.0814 20.376 15.1715 20.376 14.1221V12.5732C20.376 11.363 20.5156 10.3389 20.7949 9.50098C21.0827 8.66309 21.4678 7.99023 21.9502 7.48242C22.4326 6.96615 22.9785 6.59375 23.5879 6.36523C24.1973 6.12826 24.8236 6.00977 25.4668 6.00977C26.3301 6.00977 27.0664 6.14941 27.6758 6.42871C28.2852 6.70801 28.7803 7.12272 29.1611 7.67285C29.542 8.22298 29.8213 8.90007 29.999 9.7041C30.1852 10.5081 30.2783 11.4349 30.2783 12.4844V13.792H21.6963V11.875H28.0312V11.5576C27.9974 10.8467 27.9001 10.2204 27.7393 9.67871C27.5869 9.13704 27.333 8.71387 26.9775 8.40918C26.6221 8.09603 26.1185 7.93945 25.4668 7.93945C25.0521 7.93945 24.667 8.01139 24.3115 8.15527C23.9645 8.29069 23.6641 8.5319 23.4102 8.87891C23.1647 9.21745 22.9701 9.68717 22.8262 10.2881C22.6908 10.889 22.623 11.6507 22.623 12.5732V14.1221C22.623 14.8584 22.6908 15.4932 22.8262 16.0264C22.9701 16.5511 23.1774 16.987 23.4482 17.334C23.7275 17.6725 24.0661 17.9264 24.4639 18.0957C24.8701 18.2565 25.3314 18.3369 25.8477 18.3369C26.6009 18.3369 27.223 18.193 27.7139 17.9053C28.2048 17.609 28.6322 17.2324 28.9961 16.7754L30.1768 18.1846C29.9313 18.5316 29.6097 18.8659 29.2119 19.1875C28.8226 19.5007 28.3402 19.7588 27.7646 19.9619C27.1976 20.1566 26.5163 20.2539 25.7207 20.2539ZM35.2422 9.19629V20H32.9951V6.26367H35.1152L35.2422 9.19629ZM34.6963 12.6113L33.7822 12.5732C33.7738 11.6338 33.8796 10.7663 34.0996 9.9707C34.3281 9.16667 34.6497 8.46842 35.0645 7.87598C35.4876 7.28353 35.9912 6.8265 36.5752 6.50488C37.1592 6.1748 37.8066 6.00977 38.5176 6.00977C39.0762 6.00977 39.584 6.10286 40.041 6.28906C40.498 6.4668 40.8874 6.75456 41.209 7.15234C41.5306 7.55013 41.776 8.06641 41.9453 8.70117C42.123 9.32747 42.2119 10.0934 42.2119 10.999V20H39.9648V10.9736C39.9648 10.2542 39.8844 9.67871 39.7236 9.24707C39.5713 8.80697 39.3343 8.48958 39.0127 8.29492C38.6995 8.0918 38.3018 7.99023 37.8193 7.99023C37.3792 7.99023 36.9688 8.11296 36.5879 8.3584C36.207 8.60384 35.8727 8.94238 35.585 9.37402C35.3057 9.80566 35.0856 10.3008 34.9248 10.8594C34.7725 11.4095 34.6963 11.9935 34.6963 12.6113ZM52.7871 17.334V0.5H55.0215V20H52.9775L52.7871 17.334ZM45.1064 13.792V12.5098C45.1064 11.3757 45.2165 10.4023 45.4365 9.58984C45.6566 8.76888 45.9697 8.09603 46.376 7.57129C46.7822 7.03809 47.2689 6.64453 47.8359 6.39062C48.403 6.13672 49.0293 6.00977 49.7148 6.00977C50.4258 6.00977 51.0352 6.15365 51.543 6.44141C52.0592 6.72917 52.4909 7.14811 52.8379 7.69824C53.1849 8.23991 53.4557 8.90007 53.6504 9.67871C53.8535 10.4489 53.9889 11.3206 54.0566 12.2939V14.0078C53.9805 14.9727 53.8408 15.8402 53.6377 16.6104C53.443 17.3805 53.1722 18.0365 52.8252 18.5781C52.4782 19.1198 52.0465 19.5345 51.5303 19.8223C51.014 20.11 50.4004 20.2539 49.6895 20.2539C49.0124 20.2539 48.3945 20.1227 47.8359 19.8604C47.2773 19.5895 46.7907 19.1875 46.376 18.6543C45.9697 18.1126 45.6566 17.4398 45.4365 16.6357C45.2165 15.8232 45.1064 14.8753 45.1064 13.792ZM47.3535 12.5098V13.792C47.3535 14.5537 47.4085 15.2181 47.5186 15.7852C47.6286 16.3438 47.8021 16.8092 48.0391 17.1816C48.276 17.5456 48.5765 17.8164 48.9404 17.9941C49.3128 18.1719 49.7572 18.2607 50.2734 18.2607C50.8997 18.2607 51.4118 18.1084 51.8096 17.8037C52.2074 17.499 52.5247 17.097 52.7617 16.5977C53.0072 16.0898 53.2018 15.5439 53.3457 14.96V11.3545C53.2611 10.9229 53.1383 10.5081 52.9775 10.1104C52.8167 9.7041 52.6136 9.3444 52.3682 9.03125C52.1312 8.70964 51.8392 8.45573 51.4922 8.26953C51.1536 8.08333 50.7559 7.99023 50.2988 7.99023C49.7826 7.99023 49.334 8.08333 48.9531 8.26953C48.5807 8.45573 48.276 8.73503 48.0391 9.10742C47.8105 9.47982 47.637 9.94954 47.5186 10.5166C47.4085 11.0837 47.3535 11.748 47.3535 12.5098ZM61.6738 18.5781L64.7334 6.26367H67.1201L62.5879 22.1201C62.4779 22.4587 62.3298 22.8226 62.1436 23.2119C61.9658 23.6097 61.7373 23.9863 61.458 24.3418C61.1787 24.6973 60.8444 24.985 60.4551 25.2051C60.0658 25.4336 59.6087 25.5479 59.084 25.5479C58.9232 25.5479 58.7158 25.5225 58.4619 25.4717C58.2165 25.4209 58.0387 25.3786 57.9287 25.3447V23.4404C57.9795 23.4489 58.0599 23.4574 58.1699 23.4658C58.2799 23.4827 58.3604 23.4912 58.4111 23.4912C58.8512 23.4912 59.2236 23.4193 59.5283 23.2754C59.8415 23.14 60.1081 22.9072 60.3281 22.5771C60.5482 22.2555 60.7344 21.8112 60.8867 21.2441L61.6738 18.5781ZM59.6934 6.26367L62.4229 16.9277L63.0068 19.4033L61.4072 20.2666L57.2432 6.26367H59.6934ZM68.6562 13.792V12.4844C68.6562 11.418 68.7917 10.4827 69.0625 9.67871C69.3333 8.86621 69.71 8.18913 70.1924 7.64746C70.6748 7.10579 71.2376 6.69954 71.8809 6.42871C72.5241 6.14941 73.2139 6.00977 73.9502 6.00977C74.7035 6.00977 75.4017 6.14941 76.0449 6.42871C76.6882 6.69954 77.251 7.10579 77.7334 7.64746C78.2243 8.18913 78.6051 8.86621 78.876 9.67871C79.1468 10.4827 79.2822 11.418 79.2822 12.4844V13.792C79.2822 14.8584 79.1468 15.7979 78.876 16.6104C78.6051 17.4144 78.2285 18.0872 77.7461 18.6289C77.2637 19.1706 76.7008 19.5768 76.0576 19.8477C75.4144 20.1185 74.7204 20.2539 73.9756 20.2539C73.2308 20.2539 72.5368 20.1185 71.8936 19.8477C71.2503 19.5768 70.6833 19.1706 70.1924 18.6289C69.71 18.0872 69.3333 17.4144 69.0625 16.6104C68.7917 15.7979 68.6562 14.8584 68.6562 13.792ZM70.9033 12.4844V13.792C70.9033 14.5452 70.9795 15.2054 71.1318 15.7725C71.2842 16.3395 71.5 16.8135 71.7793 17.1943C72.0586 17.5752 72.3844 17.863 72.7568 18.0576C73.1292 18.2438 73.5355 18.3369 73.9756 18.3369C74.4834 18.3369 74.9277 18.2438 75.3086 18.0576C75.6979 17.863 76.0195 17.5752 76.2734 17.1943C76.5273 16.8135 76.7178 16.3395 76.8447 15.7725C76.9717 15.2054 77.0352 14.5452 77.0352 13.792V12.4844C77.0352 11.7311 76.959 11.0752 76.8066 10.5166C76.6543 9.94954 76.4385 9.47559 76.1592 9.09473C75.8799 8.7054 75.5498 8.41764 75.1689 8.23145C74.7965 8.03678 74.3903 7.93945 73.9502 7.93945C73.5186 7.93945 73.1165 8.03678 72.7441 8.23145C72.3717 8.41764 72.0459 8.7054 71.7666 9.09473C71.4958 9.47559 71.2842 9.94954 71.1318 10.5166C70.9795 11.0752 70.9033 11.7311 70.9033 12.4844ZM84.5889 0.5V20H82.3545V0.5H84.5889Z" fill="black"/>
</svg>
